<svg width="22" height="22" viewBox="0 0 22 22" fill="none" xmlns="http://www.w3.org/2000/svg">
<path d="M14.58 10.3249C14.9528 10.3249 15.255 10.6271 15.255 10.9999C15.255 11.3727 14.9528 11.6749 14.58 11.6749L14.58 10.3249ZM8.99999 11.6749C8.62719 11.6749 8.32499 11.3727 8.32499 10.9999C8.32499 10.6271 8.62719 10.3249 8.99999 10.3249V11.6749ZM8.99999 8.42172H9.67499H8.99999ZM6.102 6.99539L5.69025 6.46052V6.46052L6.102 6.99539ZM6.102 15.0044L5.69025 15.5393L6.102 15.0044ZM8.99999 13.5781L8.32499 13.5781V13.5781H8.99999ZM2.75285 12.4262L3.16459 11.8914L2.75285 12.4262ZM2.75285 9.57357L3.16459 10.1084L2.75285 9.57357ZM14.58 11.6749L8.99999 11.6749V10.3249L14.58 10.3249L14.58 11.6749ZM3.16459 11.8914L6.51374 14.4695L5.69025 15.5393L2.3411 12.9611L3.16459 11.8914ZM8.32499 13.5781V8.42172H9.67499V13.5781H8.32499ZM6.51374 7.53027L3.16459 10.1084L2.3411 9.0387L5.69025 6.46052L6.51374 7.53027ZM8.32499 8.42172C8.32499 7.48815 7.25351 6.96079 6.51374 7.53027L5.69025 6.46052C7.31773 5.20768 9.67499 6.36787 9.67499 8.42172H8.32499ZM6.51374 14.4695C7.25351 15.039 8.32499 14.5116 8.32499 13.5781L9.67499 13.5781C9.67499 15.6319 7.31774 16.7921 5.69025 15.5393L6.51374 14.4695ZM2.3411 12.9611C1.05408 11.9704 1.05408 10.0294 2.3411 9.0387L3.16459 10.1084C2.57958 10.5588 2.57958 11.441 3.16459 11.8914L2.3411 12.9611Z" fill="white"/>
<path d="M16.74 11H17.82" stroke="white" stroke-width="1.35" stroke-linecap="round"/>
</svg>
