<?xml version="1.0" encoding="iso-8859-1"?>
<!-- Uploaded to: SVG Repo, www.svgrepo.com, Generator: SVG Repo Mixer Tools -->
<svg fill="#000000" height="800px" width="800px" version="1.1" id="Layer_1" xmlns="http://www.w3.org/2000/svg" xmlns:xlink="http://www.w3.org/1999/xlink" 
	 viewBox="0 0 480 480" xml:space="preserve">
<g>
	<g>
		<path d="M428.808,247.752l-23.424-64c-3.44-9.424-12.496-15.752-22.528-15.752h-18.024c1.84-5.208,1.928-10.944-0.016-16.248
			l-23.424-64C337.944,78.328,328.888,72,318.856,72h-39.112c-10.032,0-19.088,6.328-22.536,15.752l-21.904,59.864l-21.912-59.864
			C209.944,78.328,200.888,72,190.856,72h-39.112c-10.032,0-19.088,6.328-22.536,15.752l-23.416,64
			c-1.944,5.304-1.864,11.04-0.016,16.248H87.752c-10.032,0-19.088,6.328-22.536,15.752l-23.416,64
			c-2.696,7.352-1.624,15.576,2.864,22C49.136,276.168,56.488,280,64.32,280h85.952c7.832,0,15.184-3.832,19.672-10.248
			c0.56-0.8,0.904-1.696,1.352-2.544c0.448,0.848,0.792,1.744,1.352,2.544c4.488,6.416,11.84,10.248,19.672,10.248h85.952
			c7.832,0,15.184-3.832,19.672-10.248c0.56-0.8,0.904-1.696,1.352-2.544c0.448,0.848,0.792,1.744,1.352,2.544
			c4.488,6.416,11.84,10.248,19.672,10.248h85.952c7.832,0,15.184-3.832,19.672-10.248
			C430.432,263.328,431.504,255.112,428.808,247.752z M248.808,157.248l23.416-64c1.152-3.136,4.176-5.248,7.52-5.248h39.112
			c3.344,0,6.36,2.112,7.512,5.248l23.424,64c0.912,2.488,0.56,5.168-0.96,7.336c-1.52,2.168-3.912,3.416-6.56,3.416H256.32
			c-2.656,0-5.04-1.24-6.56-3.416C248.248,162.416,247.896,159.744,248.808,157.248z M120.808,157.248l23.416-64
			c1.152-3.136,4.176-5.248,7.52-5.248h39.112c3.344,0,6.36,2.112,7.512,5.248l23.424,64c0.912,2.488,0.56,5.168-0.96,7.336
			c-1.52,2.168-3.912,3.416-6.56,3.416H128.32c-2.656,0-5.04-1.24-6.56-3.416C120.248,162.416,119.896,159.744,120.808,157.248z
			 M156.832,260.584c-1.52,2.176-3.912,3.416-6.56,3.416H64.32c-2.656,0-5.04-1.24-6.56-3.416c-1.512-2.168-1.864-4.84-0.952-7.336
			l23.416-64c1.152-3.136,4.176-5.248,7.52-5.248h39.112c3.344,0,6.36,2.112,7.512,5.248l23.424,64
			C158.696,255.736,158.352,258.416,156.832,260.584z M171.296,243.616L149.48,184h43.632L171.296,243.616z M284.832,260.584
			c-1.52,2.176-3.912,3.416-6.56,3.416H192.32c-2.656,0-5.04-1.24-6.56-3.416c-1.512-2.168-1.864-4.84-0.952-7.336l23.416-64
			c1.152-3.136,4.176-5.248,7.52-5.248h39.112c3.344,0,6.36,2.112,7.512,5.248l23.424,64
			C286.696,255.736,286.352,258.416,284.832,260.584z M299.296,243.616L277.48,184h43.632L299.296,243.616z M412.832,260.584
			c-1.52,2.168-3.912,3.416-6.56,3.416H320.32c-2.656,0-5.04-1.24-6.56-3.416c-1.512-2.168-1.864-4.84-0.952-7.336l23.416-64
			c1.152-3.136,4.176-5.248,7.52-5.248h39.112c3.344,0,6.36,2.112,7.512,5.248l23.424,64
			C414.704,255.736,414.352,258.416,412.832,260.584z"/>
	</g>
</g>
<g>
	<g>
		<circle cx="183.672" cy="112.32" r="8.328"/>
	</g>
</g>
<g>
	<g>
		<circle cx="312.32" cy="112.32" r="8.328"/>
	</g>
</g>
<g>
	<g>
		<circle cx="120.32" cy="215.672" r="8.328"/>
	</g>
</g>
<g>
	<g>
		<circle cx="248.32" cy="215.672" r="8.328"/>
	</g>
</g>
<g>
	<g>
		<circle cx="376.32" cy="215.672" r="8.328"/>
	</g>
</g>
<g>
	<g>
		<path d="M64,48h-8v-8c0-4.424-3.584-8-8-8s-8,3.576-8,8v8h-8c-4.416,0-8,3.576-8,8s3.584,8,8,8h8v8c0,4.424,3.584,8,8,8
			s8-3.576,8-8v-8h8c4.416,0,8-3.576,8-8S68.416,48,64,48z"/>
	</g>
</g>
<g>
	<g>
		<path d="M464,123.312l5.656-5.656c3.128-3.128,3.128-8.184,0-11.312s-8.184-3.128-11.312,0L452.688,112l-5.656-5.656
			c-3.128-3.128-8.184-3.128-11.312,0c-3.128,3.128-3.128,8.184,0,11.312l5.656,5.656l-5.656,5.656
			c-3.128,3.128-3.128,8.192-0.008,11.312c1.56,1.56,3.608,2.344,5.656,2.344c2.048,0,4.096-0.784,5.656-2.344l5.656-5.656
			l5.656,5.656c1.56,1.56,3.608,2.344,5.656,2.344c2.048,0,4.096-0.784,5.656-2.344c3.128-3.128,3.128-8.184,0-11.312L464,123.312z"
			/>
	</g>
</g>
<g>
	<g>
		<path d="M240,0c-4.416,0-8,3.576-8,8v11.2c0,4.424,3.584,8,8,8s8-3.576,8-8V8C248,3.576,244.416,0,240,0z"/>
	</g>
</g>
<g>
	<g>
		<path d="M288,40h-19.2c-4.416,0-8,3.576-8,8s3.584,8,8,8H288c4.416,0,8-3.576,8-8S292.416,40,288,40z"/>
	</g>
</g>
<g>
	<g>
		<path d="M211.2,40H192c-4.416,0-8,3.576-8,8s3.584,8,8,8h19.2c4.416,0,8-3.576,8-8S215.616,40,211.2,40z"/>
	</g>
</g>
<g>
	<g>
		<path d="M225.304,21.976L211.728,8.408c-3.128-3.128-8.192-3.128-11.32,0c-3.12,3.128-3.12,8.192,0,11.312l13.576,13.568
			c1.56,1.56,3.608,2.344,5.656,2.344c2.048,0,4.096-0.784,5.664-2.344C228.424,30.16,228.424,25.096,225.304,21.976z"/>
	</g>
</g>
<g>
	<g>
		<path d="M279.608,8.408c-3.128-3.128-8.2-3.128-11.32,0l-13.576,13.568c-3.128,3.12-3.128,8.184,0,11.312
			c1.56,1.56,3.616,2.344,5.664,2.344c2.048,0,4.096-0.784,5.656-2.344l13.576-13.568C282.736,16.6,282.736,11.536,279.608,8.408z"
			/>
	</g>
</g>
<g>
	<g>
		<path d="M472,312h-88c-7.064,0-13.36,3.128-17.76,8H320c-4.416,0-8,3.576-8,8v6.352l-65.224-15.248
			c-4.88-1.128-9.92-0.728-14.528,1.168l-62.64,25.6c-8.096,3.312-14.016,10.008-16.424,18.096l-122.24-36.936
			c-7.328-2.216-15.088-0.856-21.256,3.712C3.528,335.304,0,342.328,0,350v17.872c0,8.04,4,15.504,10.688,19.968l88.872,59.248
			c0.792,0.528,1.672,0.912,2.608,1.136l132.344,31.144c1.792,0.424,3.632,0.624,5.48,0.624c1.856,0,3.72-0.208,5.52-0.632
			L312,463.648V464c0,4.424,3.584,8,8,8h46.24c4.392,4.872,10.696,8,17.76,8h88c4.416,0,8-3.576,8-8V320
			C480,315.576,476.416,312,472,312z M311.496,447.328l-69.664,16.456c-1.2,0.304-2.48,0.296-3.672,0.008l-130.92-30.808
			l-87.68-58.456c-2.224-1.48-3.56-3.976-3.56-6.656V350c0-2.552,1.176-4.896,3.232-6.424c2.048-1.528,4.632-1.992,7.088-1.24
			l127.024,38.232C157.008,391.92,167.72,400,180.32,400H240c4.416,0,8-3.576,8-8s-3.584-8-8-8h-59.68
			c-6.792,0-12.32-5.32-12.32-12.064c0-5.024,3.008-9.432,7.664-11.328l62.648-25.56c1.536-0.64,3.216-0.752,4.84-0.368
			l68.824,16.096L311.496,447.328z M360,456h-32V336h32V456z M464,464h-80c-4.408,0-8-3.584-8-8V336c0-4.416,3.592-8,8-8h80V464z"/>
	</g>
</g>
<g>
	<g>
		<path d="M433.432,432h-24c-4.416,0-8,3.576-8,8s3.576,8,8,8h24c4.416,0,8-3.576,8-8S437.848,432,433.432,432z"/>
	</g>
</g>
</svg>