<svg xmlns="http://www.w3.org/2000/svg" width="62" height="19" viewBox="0 0 62 19" fill="none">
    <g clip-path="url(#clip0_3318_11515)">
        <path d="M24.5469 0.65332L24.4229 1.52901H27.013L26.003 8.66271H27.4396L28.4383 1.52901H31.0182L31.1423 0.65332H24.5469Z" fill="#DA1E28"/>
        <path d="M33.8463 5.54495C34.3395 5.35832 34.7005 5.15119 34.9291 4.92253C35.1568 4.69489 35.2962 4.41291 35.3485 4.07658C35.4162 3.67975 35.2593 3.32701 34.8789 3.01631C34.4964 2.70562 33.9622 2.55078 33.2741 2.55078C32.3995 2.55078 31.6274 2.83789 30.9578 3.41417C30.2882 3.98942 29.8749 4.7236 29.7181 5.61262C29.5684 6.48011 29.7478 7.22353 30.2564 7.84492C30.765 8.46631 31.4561 8.77496 32.3328 8.77496C32.945 8.77496 33.4792 8.66831 33.9366 8.45606C34.3929 8.24277 34.7887 7.91567 35.125 7.47475L34.6646 7.13842C34.4554 7.33222 34.2575 7.49013 34.0709 7.6101C33.8843 7.72905 33.6915 7.81928 33.4936 7.87876C33.2957 7.93925 33.0762 7.96899 32.8384 7.96899C32.2098 7.96899 31.7494 7.78237 31.4582 7.40707C31.167 7.03383 31.0398 6.55804 31.0767 5.98279C32.1985 5.98279 33.1214 5.83719 33.8484 5.54495H33.8463ZM31.5976 4.37804C31.7955 4.07247 32.0303 3.82843 32.3041 3.64898C32.5779 3.46954 32.8599 3.38033 33.1501 3.38033C33.4567 3.38033 33.7089 3.45826 33.9068 3.61515C34.1057 3.77203 34.1775 3.97404 34.1263 4.22116C34.0965 4.4006 34.0042 4.56159 33.8463 4.70207C33.6894 4.8446 33.4905 4.95739 33.2516 5.0384C33.0127 5.12146 32.7717 5.18811 32.5277 5.24143C32.2857 5.29372 32.0293 5.33064 31.7596 5.3532C31.5504 5.37576 31.3525 5.38704 31.1659 5.38704C31.2551 5.02097 31.3997 4.68464 31.5976 4.37702V4.37804Z" fill="#DA1E28"/>
        <path d="M39.9303 7.77006C39.6566 7.90131 39.3633 7.96694 39.0495 7.96694C38.624 7.96694 38.2692 7.85312 37.9841 7.62446C37.6991 7.39682 37.5073 7.11278 37.4068 6.77235C37.3063 6.43192 37.2858 6.0556 37.3453 5.64544C37.4355 5.00251 37.6929 4.46007 38.1195 4.01813C38.545 3.57721 39.068 3.35674 39.6894 3.35674C40.0031 3.35674 40.282 3.42442 40.5261 3.55977C40.7681 3.69308 40.9988 3.90328 41.2152 4.18732L41.7648 3.85099C41.5853 3.44801 41.3033 3.13013 40.9188 2.89839C40.5343 2.66563 40.0636 2.55078 39.5109 2.55078C39.0321 2.55078 38.5819 2.63897 38.1595 2.81431C37.736 2.98965 37.374 3.22344 37.0705 3.51466C36.767 3.8069 36.5147 4.1422 36.3138 4.51955C36.1117 4.89689 35.9846 5.29167 35.9323 5.70183C35.8052 6.5765 35.999 7.30761 36.5147 7.89516C37.0305 8.48169 37.7421 8.77495 38.6465 8.77495C39.1992 8.77495 39.7027 8.66011 40.1549 8.42734C40.6081 8.1956 40.9803 7.87773 41.2726 7.47475L40.8122 7.13842C40.4984 7.43066 40.2051 7.64086 39.9314 7.77211L39.9303 7.77006Z" fill="#DA1E28"/>
        <path d="M47.5126 3.13289C47.2173 2.73708 46.759 2.53918 46.1386 2.53918C45.9151 2.53918 45.6977 2.56994 45.4875 2.63454C45.2783 2.69812 45.0783 2.78938 44.8876 2.90935C44.6969 3.0283 44.5205 3.17698 44.3554 3.35232C44.1914 3.52767 44.0417 3.73172 43.9063 3.96346L44.4446 0.137695H43.0542L41.8545 8.66287H43.2449L43.7382 5.18471C44.0007 4.60228 44.3083 4.15213 44.6631 3.83323C45.0178 3.51536 45.3685 3.3554 45.712 3.3554C45.8987 3.3554 46.0535 3.40974 46.1776 3.51844C46.3016 3.62713 46.3827 3.78196 46.4237 3.98397C46.4657 4.18597 46.4667 4.42181 46.4298 4.69047L45.8689 8.66184H47.2594L47.8203 4.6351C47.9105 4.02909 47.808 3.52767 47.5126 3.13186V3.13289Z" fill="#DA1E28"/>
        <path d="M54.1192 3.13375C53.8239 2.73794 53.3696 2.54004 52.7554 2.54004C52.2858 2.54004 51.8551 2.66821 51.4665 2.92559C51.0779 3.18399 50.7487 3.55313 50.479 4.02994L50.6697 2.66206H49.2793L48.4385 8.66372H49.8289L50.3006 5.28708C50.5693 4.67389 50.8861 4.19811 51.2481 3.86178C51.6111 3.52545 51.9679 3.35728 52.3196 3.35728C52.6047 3.35728 52.8098 3.47725 52.9369 3.7172C53.063 3.95612 53.0969 4.28117 53.0374 4.69235L52.4765 8.66372H53.8669L54.4381 4.63698C54.5211 4.03097 54.4145 3.52955 54.1192 3.13375Z" fill="#DA1E28"/>
        <path d="M60.7668 3.44088C60.2582 2.84717 59.563 2.5498 58.6801 2.5498C57.7973 2.5498 57.0046 2.84717 56.3258 3.44088C55.6439 4.03561 55.2409 4.77492 55.1138 5.65676C54.9948 6.54579 55.1907 7.28817 55.7024 7.88393C56.2151 8.47764 56.9164 8.775 57.8055 8.775C58.6945 8.775 59.4666 8.47764 60.1454 7.88393C60.8222 7.2892 61.2231 6.54681 61.3503 5.65676C61.4702 4.77492 61.2764 4.03561 60.7678 3.44088H60.7668ZM59.9362 5.65676C59.8532 6.28533 59.6163 6.82675 59.2236 7.28407C58.8319 7.73935 58.3961 7.96801 57.9172 7.96801C57.4384 7.96801 57.0661 7.73935 56.8016 7.28407C56.536 6.82777 56.4437 6.28533 56.5268 5.65676C56.616 5.02819 56.86 4.48883 57.2558 4.03561C57.6516 3.58238 58.0874 3.35679 58.5622 3.35679C59.037 3.35679 59.4071 3.58341 59.6727 4.03561C59.9373 4.48883 60.0254 5.02819 59.9362 5.65676Z" fill="#DA1E28"/>
        <path d="M31.9842 11.8915C31.7145 11.2588 31.2992 10.7605 30.7383 10.3944C30.1774 10.0283 29.5334 9.84375 28.8034 9.84375C28.0733 9.84375 27.377 10.0283 26.7115 10.3944C26.0461 10.7605 25.4893 11.2588 25.0412 11.8915C24.592 12.5241 24.3152 13.2142 24.2106 13.9618C24.105 14.7093 24.187 15.3994 24.4567 16.032C24.7264 16.6627 25.1437 17.1631 25.7077 17.5291C26.2717 17.8952 26.9177 18.0787 27.6426 18.0787C28.3676 18.0787 29.0659 17.8952 29.7344 17.5291C30.404 17.1631 30.9608 16.6627 31.4058 16.032C31.8498 15.3994 32.1246 14.7093 32.2302 13.9618C32.3359 13.2142 32.2528 12.5241 31.9842 11.8915ZM30.7885 13.9618C30.6573 14.8959 30.3169 15.667 29.7683 16.272C29.2186 16.878 28.5532 17.1815 27.7718 17.1815C26.9905 17.1815 26.4101 16.878 26.0276 16.272C25.6462 15.667 25.5221 14.8959 25.6523 13.9618C25.7825 13.0266 26.1219 12.2565 26.6726 11.6505C27.2222 11.0455 27.8887 10.742 28.6742 10.742C29.4596 10.742 30.041 11.0455 30.4184 11.6505C30.7957 12.2565 30.9198 13.0266 30.7885 13.9618Z" fill="#DA1E28"/>
        <path d="M41.4504 9.74341C41.3017 9.60908 41.1213 9.50552 40.9121 9.43579C40.7029 9.36401 40.4712 9.32812 40.2169 9.32812C39.6785 9.32812 39.2038 9.49219 38.7926 9.82134C38.3804 10.1505 38.1343 10.614 38.0512 11.2128L37.9394 11.9634H35.1011L35.2027 11.2682C35.3062 10.5053 35.6579 10.1238 36.2568 10.1238C36.6228 10.1238 36.9028 10.2961 37.0976 10.6396L37.5344 10.2366C37.4452 9.94439 37.2627 9.72085 36.9848 9.56397C36.7079 9.40708 36.3747 9.32812 35.9861 9.32812C35.4477 9.32812 34.973 9.49219 34.5618 9.82134C34.1496 10.1505 33.9035 10.614 33.8204 11.2128L33.7086 11.9634H32.9458L32.834 12.7714H33.5959L32.8483 18.0902H34.2357C34.2439 18.0461 34.2521 18.004 34.2583 17.9651L34.9873 12.7714H37.8256L37.0771 18.0902H38.4655C38.4737 18.0461 38.4819 18.004 38.488 17.9651L39.2171 12.7714H40.665L40.7778 11.9634H39.3299L39.4314 11.2682C39.535 10.5053 39.8867 10.1238 40.4855 10.1238C40.8516 10.1238 41.1325 10.2961 41.3263 10.6396L41.7632 10.2366C41.7037 10.0428 41.5991 9.87774 41.4494 9.74341H41.4504Z" fill="#DA1E28"/>
        <path d="M1.6806 2.15158C2.52963 1.15079 3.58579 0.650391 4.85113 0.650391C6.11648 0.650391 7.02908 1.15079 7.58997 2.15158C8.14984 3.15236 8.32621 4.41361 8.11806 5.9353C7.89349 7.45699 7.36131 8.71823 6.52048 9.71902C5.67966 10.7198 4.62657 11.2202 3.36123 11.2202C2.09589 11.2202 1.17918 10.7198 0.611108 9.71902C0.0430364 8.71823 -0.129231 7.45699 0.0953317 5.9353C0.303488 4.41361 0.831568 3.15236 1.6806 2.15158ZM2.47323 8.61364C2.6496 9.37449 3.01362 9.75491 3.56631 9.75491C4.119 9.75491 4.5753 9.3991 4.93522 8.68542C5.29513 7.97277 5.55558 7.05606 5.71555 5.9353C5.89191 4.91092 5.89602 4.0178 5.72785 3.25696C5.55968 2.49611 5.19567 2.11569 4.63477 2.11569C4.07388 2.11569 3.61348 2.47253 3.25356 3.18518C2.89365 3.89783 2.6414 4.81454 2.49682 5.9353C2.30507 6.9607 2.29686 7.8528 2.47323 8.61364ZM14.8211 0.794972H17.0308L4.97213 17.9468H2.76137L14.8211 0.794972ZM16.4546 7.52159C17.7199 7.52159 18.6325 8.02199 19.1934 9.02278C19.7543 10.0236 19.9296 11.2848 19.7215 12.8065C19.5769 13.8001 19.3011 14.6881 18.893 15.4725C18.4848 16.257 17.9404 16.8896 17.2595 17.3706C16.5786 17.8515 15.8137 18.0914 14.9657 18.0914C13.7003 18.0914 12.7836 17.591 12.2156 16.5902C11.6465 15.5894 11.4742 14.3282 11.6987 12.8065C11.8269 11.8139 12.0956 10.9249 12.5037 10.1405C12.9118 9.35603 13.4604 8.72336 14.1495 8.24245C14.8375 7.76154 15.6065 7.52159 16.4556 7.52159H16.4546ZM14.0767 15.4848C14.253 16.2457 14.617 16.6261 15.1697 16.6261C15.7224 16.6261 16.1787 16.2703 16.5386 15.5576C16.8986 14.845 17.1508 13.9283 17.2954 12.8075C17.4871 11.7832 17.4953 10.89 17.319 10.1292C17.1426 9.36834 16.7827 8.98791 16.2382 8.98791C15.8537 8.98791 15.5132 9.16838 15.2169 9.5283C14.9206 9.88821 14.6847 10.3455 14.5083 10.8972C14.332 11.4499 14.1956 12.0867 14.1002 12.8065C13.9085 13.8319 13.9003 14.724 14.0767 15.4848Z" fill="#DA1E28"/>
    </g>
    <defs>
        <clipPath id="clip0_3318_11515">
            <rect width="61.3825" height="17.9527" fill="white" transform="translate(0 0.137695)"/>
        </clipPath>
    </defs>
</svg>